<svg width="22" height="21" viewBox="0 0 22 21" fill="none" xmlns="http://www.w3.org/2000/svg">
<path d="M21.3391 8.38443L16.701 12.9043L17.7954 19.2931C17.84 19.5761 17.7284 19.8516 17.4976 20.0229C17.371 20.1197 17.2147 20.1643 17.0583 20.1643C16.9392 20.1643 16.8201 20.1346 16.7084 20.0824L10.976 17.0667L5.2435 20.0824C4.99038 20.2165 4.69259 20.1941 4.4618 20.0229C4.23101 19.859 4.11934 19.5761 4.16401 19.2931L5.25839 12.9043L0.627755 8.38443C0.426747 8.18339 0.352299 7.89298 0.441636 7.62492C0.530973 7.35686 0.761761 7.15581 1.04466 7.11858L7.45459 6.1878L10.3208 0.379757C10.5739 -0.126586 11.4078 -0.126586 11.6534 0.379757L14.5197 6.1878L20.9296 7.11858C21.2125 7.16325 21.4433 7.35686 21.5326 7.62492C21.622 7.89298 21.5475 8.18339 21.3391 8.38443Z" fill="#B67659"/>
</svg>
