<svg width="16" height="15" viewBox="0 0 16 15" fill="none" xmlns="http://www.w3.org/2000/svg">
<g clip-path="url(#clip0_150_4785)">
<path fill-rule="evenodd" clip-rule="evenodd" d="M5.07545 2.90845C4.0123 2.90845 3.15045 3.7703 3.15045 4.83345V10.6834C3.15045 11.7466 4.0123 12.6084 5.07545 12.6084H10.9255C11.9886 12.6084 12.8505 11.7466 12.8505 10.6834V4.83345C12.8505 3.7703 11.9886 2.90845 10.9255 2.90845H5.07545ZM1.15045 4.83345C1.15045 2.66573 2.90773 0.908447 5.07545 0.908447H10.9255C13.0932 0.908447 14.8505 2.66573 14.8505 4.83345V10.6834C14.8505 12.8512 13.0932 14.6084 10.9255 14.6084H5.07545C2.90773 14.6084 1.15045 12.8512 1.15045 10.6834V4.83345Z" fill="white"/>
<path fill-rule="evenodd" clip-rule="evenodd" d="M8.22211 6.40781C7.9433 6.36647 7.65856 6.41409 7.40839 6.5439C7.15821 6.67371 6.95533 6.8791 6.82862 7.13086C6.7019 7.38262 6.65779 7.66793 6.70257 7.9462C6.74735 8.22447 6.87873 8.48154 7.07803 8.68084C7.27733 8.88014 7.53439 9.01152 7.81266 9.0563C8.09094 9.10107 8.37624 9.05697 8.628 8.93025C8.87976 8.80353 9.08515 8.60066 9.21497 8.35048C9.34478 8.1003 9.3924 7.81556 9.35106 7.53676C9.30889 7.25237 9.17637 6.98908 8.97307 6.78579C8.76978 6.5825 8.5065 6.44998 8.22211 6.40781ZM6.48725 4.76865C7.11082 4.44509 7.82055 4.32639 8.51547 4.42944C9.22432 4.53455 9.88057 4.86486 10.3873 5.37158C10.894 5.87829 11.2243 6.53454 11.3294 7.24339C11.4325 7.93832 11.3138 8.64804 10.9902 9.27162C10.6667 9.8952 10.1547 10.4009 9.52718 10.7167C8.89966 11.0326 8.18853 11.1425 7.49493 11.0309C6.80132 10.9193 6.16057 10.5918 5.66381 10.0951C5.16705 9.59829 4.83958 8.95754 4.72797 8.26394C4.61636 7.57034 4.7263 6.8592 5.04215 6.23168C5.35799 5.60416 5.86367 5.09221 6.48725 4.76865Z" fill="white"/>
<path d="M12.0948 4.54107C12.0948 5.0257 11.702 5.41857 11.2173 5.41857C10.7327 5.41857 10.3398 5.0257 10.3398 4.54107C10.3398 4.05644 10.7327 3.66357 11.2173 3.66357C11.702 3.66357 12.0948 4.05644 12.0948 4.54107Z" fill="white"/>
</g>
<defs>
<clipPath id="clip0_150_4785">
<rect width="14.04" height="14.04" fill="white" transform="translate(0.980469 0.738525)"/>
</clipPath>
</defs>
</svg>
