<svg width="22" height="21" viewBox="0 0 22 21" fill="none" xmlns="http://www.w3.org/2000/svg">
<path opacity="0.9" d="M21.4739 8.38443L16.8358 12.9043L17.9302 19.2931C17.9748 19.5761 17.8632 19.8516 17.6324 20.0229C17.5058 20.1197 17.3495 20.1643 17.1931 20.1643C17.074 20.1643 16.9549 20.1346 16.8432 20.0824L11.1108 17.0667L5.37828 20.0824C5.12516 20.2165 4.82737 20.1941 4.59658 20.0229C4.36579 19.859 4.25412 19.5761 4.29879 19.2931L5.39317 12.9043L0.762521 8.38443C0.561513 8.18339 0.487065 7.89298 0.576402 7.62492C0.665739 7.35686 0.896527 7.15581 1.17943 7.11858L7.58938 6.1878L10.4556 0.379757C10.7087 -0.126586 11.5426 -0.126586 11.7882 0.379757L14.6545 6.1878L21.0644 7.11858C21.3473 7.16325 21.5781 7.35686 21.6674 7.62492C21.7568 7.89298 21.6823 8.18339 21.4739 8.38443Z" fill="#70758F" fill-opacity="0.3"/>
</svg>
