<svg width="16" height="14" viewBox="0 0 16 14" fill="none" xmlns="http://www.w3.org/2000/svg">
<path d="M0.5 3.17539H8.64103C8.86559 4.0827 9.68634 4.75748 10.6621 4.75748C11.6378 4.75748 12.4585 4.0827 12.6831 3.17539H15.5C15.7761 3.17539 16 2.95151 16 2.67539C16 2.39926 15.7761 2.17539 15.5 2.17539H12.6831C12.4585 1.26807 11.6378 0.593262 10.662 0.593262C9.68628 0.593262 8.86553 1.26807 8.641 2.17539H0.5C0.223875 2.17539 0 2.39926 0 2.67539C0 2.95151 0.223875 3.17539 0.5 3.17539ZM10.6621 1.59326C11.2588 1.59326 11.7442 2.0787 11.7442 2.67536C11.7442 3.27204 11.2588 3.75748 10.6621 3.75748C10.0654 3.75748 9.57994 3.27204 9.57994 2.67536C9.57994 2.0787 10.0654 1.59326 10.6621 1.59326V1.59326ZM0.5 7.50001H3.31694C3.5415 8.40732 4.36222 9.08211 5.33797 9.08211C6.31372 9.08211 7.13444 8.40732 7.359 7.50001H15.5C15.7761 7.50001 16 7.27614 16 7.00001C16 6.72389 15.7761 6.50001 15.5 6.50001H7.35897C7.13441 5.5927 6.31369 4.91789 5.33794 4.91789C4.36219 4.91789 3.54147 5.5927 3.31691 6.50001H0.5C0.223875 6.50001 0 6.72389 0 7.00001C0 7.27614 0.223844 7.50001 0.5 7.50001V7.50001ZM5.33794 5.91789C5.93462 5.91789 6.42006 6.40332 6.42006 7.00001C6.42006 7.59667 5.93462 8.08211 5.33794 8.08211C4.74125 8.08211 4.25581 7.59667 4.25581 7.00001C4.25581 6.40332 4.74125 5.91789 5.33794 5.91789V5.91789ZM15.5 10.8246H12.6831C12.4585 9.91732 11.6378 9.24251 10.662 9.24251C9.68628 9.24251 8.86556 9.91732 8.641 10.8246H0.5C0.223875 10.8246 0 11.0485 0 11.3246C0 11.6008 0.223875 11.8246 0.5 11.8246H8.64103C8.86559 12.7319 9.68631 13.4068 10.6621 13.4068C11.6378 13.4068 12.4585 12.7319 12.6831 11.8246H15.5C15.7761 11.8246 16 11.6008 16 11.3246C16 11.0485 15.7762 10.8246 15.5 10.8246ZM10.6621 12.4068C10.0654 12.4068 9.57994 11.9213 9.57994 11.3246C9.57994 10.7279 10.0654 10.2425 10.6621 10.2425C11.2588 10.2425 11.7442 10.7279 11.7442 11.3246C11.7442 11.9213 11.2588 12.4068 10.6621 12.4068Z" fill="#B67659"/>
</svg>
